<svg id="white" xmlns="http://www.w3.org/2000/svg" viewBox="0 0 508.87 415.26"><path d="M307.61,378.44s1.11.5,1,1.06,1.74.23,11.59-5.66C319.73,373.23,307.61,378.44,307.61,378.44Z" fill="#fff"/><path d="M492.81,76.93c.47,1,.91,2,1.35,2.91l-.64-1.59A14.88,14.88,0,0,0,492.81,76.93Z" fill="#fff"/><path d="M235.23,403.42c-1.22.19-3.28.66-7.14,1.55l6.34-1.23Z" fill="#fff"/><path d="M300.09,378.07l8.14-3.65-11.42,4.06c7.53-2.77,4.15-.87-.43,1.47-4.65,2.18-10.47,4.81-7.42,4.11a74.26,74.26,0,0,1,7.7-3.54c3-1.29,5.66-2.6,5.65-2.85l1.89-.84-1.92.8A7,7,0,0,0,300.09,378.07Z" fill="#fff"/><path d="M231.51,406.72c-4.25.28-8.74,2.28-13.73,3.22C231.25,408.72,216.77,410.14,231.51,406.72Z" fill="#fff"/><path d="M337.58,358.47l-6.93,3.67C333.25,360.89,335.53,359.66,337.58,358.47Z" fill="#fff"/><path d="M341.5,359.85c6.05-3.25-7.12,8.2,13.08-6.46C354,352.86,348,356,341.5,359.85Z" fill="#fff"/><path d="M494.21,73.27l.28-.31.37-.46,1-1.34a39.49,39.49,0,0,1-2.66,3A5.35,5.35,0,0,0,494.21,73.27Z" fill="#fff"/><path d="M379.39,2.44l3,.91C381.41,3,379.39,2.44,379.39,2.44Z" fill="#fff"/><path d="M344.43,1.89H345l.28-.82Z" fill="#fff"/><path d="M113.7,400.52c3.69,1.7,8.17,3.37,11.91,4.68C122,403.62,117,401.72,113.7,400.52Z" fill="#fff"/><path d="M500.84,59.25c.1-.22.2-.47.2-.47S501,59,500.84,59.25Z" fill="#fff"/><path d="M129.55,407.9c2.35.23,2.88.14,2.59-.19s-1.66-.84-3.94-1.61l-2.59-.9C128.78,406.58,130.85,407.72,129.55,407.9Z" fill="#fff"/><path d="M496.51,90.49c.78,1,1.5,2,2.23,3a84.73,84.73,0,0,0-4.58-13.62C495.83,84.2,495.84,86.65,496.51,90.49Z" fill="#fff"/><path d="M499.51,94.47c-.26-.34-.52-.67-.77-1,1,3.8,1.75,7.52,2.33,10.69C501.43,103.37,501.21,100.35,499.51,94.47Z" fill="#fff"/><path d="M247.54,20.09l.07,0h0l-.36.13-.21.09-.1,0s0,0,0,0l.23-.09Z" fill="#fff"/><path d="M463.07,40.81c-1.07-1-2.4-2.08-4.11-3.37Z" fill="#fff"/><path d="M54.06,359.11l-.48-.1H53.1a29.32,29.32,0,0,1-3.57.08,15.55,15.55,0,0,1-2.47-.29l.55.17a19.79,19.79,0,0,0,2.22.26c1.11.08,1.7.09,2,.13.54.09-.22.3-1.15.46s-2.14.18-2.11.26a3.12,3.12,0,0,0,1.16.16,19.35,19.35,0,0,0,3.53-.15l.41-.06.41,0,1.34,0C57,359.64,56.11,359.37,54.06,359.11Z" fill="#fff"/><path d="M47.05,358.8h0c-1-.31-2.48-.86-2.48-.86S46.34,358.61,47.05,358.8Z" fill="#fff"/><path d="M245.41,401.16h0l7.38-2.43a16.24,16.24,0,0,0,2.49-1.2l1.17-.36c.35-.1,1-.26,1.4-.4-.49,0-1.3.08-1.61.05h-.56l-.81.12c-1.07.16-2.13.36-3.2.59-2.14.46-4.31,1-6.67,1.72l1.08-.58-1.69.76a142,142,0,0,1-22.13,5.35c5.85-.63,9.94-1.12,13.92-1.73l-1,.37c2.68-.4,2.17.26,10-2.21Z" fill="#fff"/><path d="M314.89,370.25c-2.37,2.06-10.69,6.58-10.69,6.58s5.75-2.29,8.51-3.67C310,374,314.29,370.88,314.89,370.25Z" fill="#fff"/><path d="M284.87,10.74l.49-.09.1-.78Z" fill="#fff"/><path d="M505.54,129.25c-.37-1.82-.66-6.49-1.19-10.73-.78-6.17-1.83-5-1.83-5s-.45-3.88-1.45-9.35c-.09.19-.2.29-.34.22-.8-.32-2.32-3.87-4.47-9.29,2,6.57,3.18,9.74,4.21,13a44.94,44.94,0,0,1,2.17,13.54l1.44-.43c.1,2.63.15,5.25.13,7.86.15-1.09.47-.15.83.75a31.09,31.09,0,0,0-4.55,7.23c.14-2.31.23-4.63.23-7-1.52-22.19-7.43-40.33-16-55.17a101.88,101.88,0,0,0,9.64-12.37c-.53,1.15-1.1,2.29-1.74,3.39-2.12,3.7-4.25,6.81-5.58,9.24,1.16,1.46,2.24,2.76,3.2,3.78s2,2.12,3.06,3.15c-.64-1.27-1.16-2.34-1.62-3.23-.33-.66-.58-1.21-.78-1.65a4.79,4.79,0,0,1-.52-1.71c.65-.44,1.23-.63,2-1.07a10.36,10.36,0,0,0,1.25-.87,12.4,12.4,0,0,0,2.28-2.37A55.71,55.71,0,0,0,499.74,66a24,24,0,0,0,1.93-3.42c.19-.47.28-.71.48-1.19a14.16,14.16,0,0,0,.43-1.88,3.53,3.53,0,0,0,.07-.56,8.48,8.48,0,0,0,0-1,9.42,9.42,0,0,0-.37-2c-.41-1.71-3-4.19-4.19-4.34a6.21,6.21,0,0,1,1.44.8A8.5,8.5,0,0,1,501.08,54a7.84,7.84,0,0,1,1,1.85c.11.41.2.84.27,1.26a7.45,7.45,0,0,1,0,2.24c-.09.41-.19.82-.32,1.22a10.4,10.4,0,0,1-1.5,2.88,26.76,26.76,0,0,1-2.94,3.47c-.95,1-2,1.94-3,2.83A24.18,24.18,0,0,1,492,72c.78-1,1.54-2,2.23-2.9S495.75,67,496.45,66a33.4,33.4,0,0,0,2-3.16,12.92,12.92,0,0,0,.91-1.86,5.84,5.84,0,0,0,.4-1.29c.06-.3.09-.45.14-.75a5.52,5.52,0,0,0-.06-1.32,6.28,6.28,0,0,1,.2,1.38c0,.31,0,.47,0,.79a6.51,6.51,0,0,0,0,1.09,8.07,8.07,0,0,0,.8-1.63c-.09.2-.19.37-.21.32s.08-.44-.19-2.08a5.63,5.63,0,0,0-.37-1.19,6.3,6.3,0,0,0-1.36-1.79,4.34,4.34,0,0,0-1.75-1,6.69,6.69,0,0,0-1.81-.34,10.56,10.56,0,0,0-2.1.27c-.49.14-1,.31-1.56.48l.74-.21-3.54,1.1-3.1.72-2.7.6-3.67.72c-.66.42-.9-.59-1.33-1l-1.27-1.64c-.64-.77-1.33-1.56-2-2.4a26.3,26.3,0,0,0-3.28-3.33l-.64-.28c-2.37-2.33-4.75-4.94-7.61-7.41,3.07,3,3.87,5.2,6,8.07l.69.34c.91,1.79,2.62,4-5.82-2.2a72.59,72.59,0,0,0-5.42-4.88,31.69,31.69,0,0,1-2.81-2.67A50.08,50.08,0,0,0,463.2,43l-2.88-2.25a14.61,14.61,0,0,0-3.14-4.43c-1.49-1.74-4-3.91-8.93-8.5-3.92-2,.26,1.44,4.42,5a41.77,41.77,0,0,0-3.57-2.38l4.28,3c2.84,2.51,5.2,5.27,5,5.81-4.89-4-1.34-3-9.32-8.79a105.25,105.25,0,0,0-9.51-6l2.3,1.87-1.37-.8c1.63,1.38,3.34,2.59,4.86,4.1-13.06-7.52-14.81-9.26-9.86-8.15-10.66-4.85-13.95-6.5-16.59-8s-4.8-2.6-13.65-4.65c5.76,2.52,9.44,4.92,15,7.39-2.51-1-5-2.08-7.56-2.88l1.59.87-4.86-1.51a4,4,0,0,0-1.19.09c-3.32-1.4-1.9-1.7-2.54-2.48-.32-.38-1.2-.87-3.44-1.65a85.1,85.1,0,0,0-11.91-3c8,1.89,1.94,1.33,0,1.47-.71-.26-1.48-.53-2.26-.78l-5.55-2a3.24,3.24,0,0,0-1.49.05c-7.8-1.94-15.08-2.91-13-4,7,.56,8.71,1.43,11.31,2.28-.92-.39-1.06-.71-1.06-1A72.85,72.85,0,0,0,367.23,0c-1.31-.06-2.42,0-3.41,0l-1.37.1a13.45,13.45,0,0,0-1.68.16,40.75,40.75,0,0,1-10.68,1.54c-1,0-2,0-3.46,0H345L344.9,2c-1.46.13-3.2.31-5.43.6l2.87.23a204.17,204.17,0,0,0-26.15,1.68h-.59c-.93-.11-1.12-.36-1.21-.62-8.35.84-11.86,1.88-14.31,2.76L289.25,8.23l-3.18,2.29-.71.13-.05.43-.13.1c-3.72-.88-13.66,1.42-23.64,3.75q-7,2.41-13.94,5.12h0l.07,0-.07,0,.11.31h0l-.35.11-.31.11c0-.08,0-.12-.09-.19s0-.08,0-.08l-.53.21-1.52.61-3,1.21h0l-1.08.45,1.06-.44c-4.73,1.53-8.26,2.95-3.29.23-7.33,3.57-4.15,2.42-8.12,5l-.09.05c-3.91,1.85-7.38,4-10.88,6-2.31,1-4.6,2.2-7,3.28-2.66,1.6-5.32,3.21-7.88,4.92-9.89,4.89-11.46,3-21.22,9.34A274.16,274.16,0,0,0,144,81.61c1.07-3.48,1.6-5.21,2.66-8.69l-32.89,37.93-.41.44,0,0c-6.19,7.13-11.67,13.67-17.15,21.29-1.39,1.92-2.88,3.91-4.4,6s-2.9,4.4-4.46,6.67c-3.13,4.53-6.43,9.76-10.06,15.63a81.65,81.65,0,0,1-5.12,8.72c-1.12,1.8-2.33,3.79-3.46,6l.39-.57c2.72-4.07,3.2-4.23,3-3.2a241.53,241.53,0,0,0-30.81,85.27c-.32,1.49-.66,3.28-1,5.66.2-.94.37-1.69.53-2.37a204.11,204.11,0,0,0-2,24.3,1.89,1.89,0,0,0-.17.72v2.36c0,2.77.17,5.37.38,7.76,0,.33,0,.52,0,.52a2,2,0,0,0-.42,1.18,2.64,2.64,0,0,0,.11.56,35.46,35.46,0,0,1-5.12,2.61l-5,2,1.52,2.32-.54.3L28,302.18l5.32-2.44c1.56-.71,4.48-2.48,4.48-2.48s-3,1.7-4.53,2.38L27.82,302l1.72,3c-.42.22-.78.45-1.23.67.32.58,1.21.82,2.18,1l.28.5a7.37,7.37,0,0,0,1.88,2.14l.15.1-1.06.9-3.41,3.13,1.48-.8c-2.47,2.11-5.26,4.71-8.16,7.58-.57.48-1.13,1-1.68,1.41,1.11-1.54,2.24-3.09,3.85-4.94.8-.92,1.73-1.93,2.83-3,.55-.53,1.16-1.1,1.79-1.69.31-.29.65-.58,1-.89s.52-.44.8-.66l-.8.54-1,.79c-.67.53-1.34,1-2,1.53-1.26,1-2.45,2-3.56,2.92-2.26,1.87-4.32,3.7-6.42,5.64s-4.27,4-6.62,6.5a72.36,72.36,0,0,0-7.26,8.68c.75.54-.53,3.67-1.11,6.7-1.6,2.66-2,4.36-.81,4.68a6.31,6.31,0,0,0,0,1.64,2.45,2.45,0,0,1,.77.63,2.27,2.27,0,0,0,1.36.76c.88.1,2,.2,3.14.28a28.36,28.36,0,0,0,9.52-.86c-2.93-.17-6.74-.29-9.52-.68-.69-.1-1.39.11-2.14-.71a2.64,2.64,0,0,1-.3-1.48c1-.23,2.54-.69,4.48-1.31.42.37,1.27.36,2.71-.18,4.39-.8,28.32-9.72,32.7-10.5a6.47,6.47,0,0,1,.91-.44c1.24-.11,2.5-.18,3.71-.18l.37,1a17.72,17.72,0,0,1-1.88.64,19.59,19.59,0,0,0-3,.75c-1.06.14-2.08.33-3.08.53.85-.32,1.65-.66,2.78-1a20.1,20.1,0,0,0-5.07,1.45l-3.13.65c-.22.33.54.29,2,0a16.83,16.83,0,0,1-4.62,2.32c-2,.45-4,.88-5.73,1.23-1.93.4-3.64.67-5.3,1-.68.56,1.05.48,4.85-.39s9.31-2.54,15.32-4.08l2.28-.52c.68-.28,1.47-.46,2.19-.7a15.07,15.07,0,0,1,2.89-.49c.26.66.5,1.32.76,2s.24.89.41,1.48c.15.22.23.33.39.54A7.08,7.08,0,0,0,48.77,343c-.6,1.15.31.22,1.59-.56l.31-.35.09.12-.4.23c-.24.27-.67.7-1.07,1.23-.1.13-.22.31-.33.47-1.28.76-2.23,1.19-2.46,1l-2.71,2-.59.44-.26.39a9.4,9.4,0,0,0-1.45,2.9l-1.05.76a9.81,9.81,0,0,1,.35-1.42,13.59,13.59,0,0,1,.78-1.52c.28-.36.56-.74.85-1.13l.46-.62.51-.32c1.46-.9,5.29-3.48,5.29-3.48s2.22-3.06-6,2.52l-.65.44-.56.72c-.29.39-.61.83-.94,1.33-.18.32-.39.73-.57,1.13a6.67,6.67,0,0,0-.52,1.62,7.07,7.07,0,0,0-.16,1.68c-1.26,1.69-.71,2.7.72,3.19.1.2.16.41.28.61a8.22,8.22,0,0,0,2,2.26,10,10,0,0,0,1.88,1.13c1.4.45,1.8.3,2,.24s-.17-.27-1-.66a11.67,11.67,0,0,1-1.69-1,7.67,7.67,0,0,1-2.11-2.3,11,11,0,0,0,1.31.08,7,7,0,0,0,.88.91,7.54,7.54,0,0,0,4.66,1.47c.06,0,.23.09.25.13a19,19,0,0,0,4.65-.23l.52-.11.53,0c6.18-.23,1.9-.62,0-1.1-.34-.11-.59-.24-.63-.35v0c0-.1.18-.18.63-.26l3.38-.36a24.08,24.08,0,0,1-3.37.19l-.67,0-.65.1a14,14,0,0,1-5.91-.36c-.18-.06-.39-.15-.61-.25A55.68,55.68,0,0,0,57.84,355l.29.42c.85,1.18,1.7,2.48,2.55,3.84l.86,1.18A97.14,97.14,0,0,0,80.22,380c1.78,1.23,3.57,2.48,5.37,3.71,0,0,0,.06-.06.05h.14l.51.35a36.28,36.28,0,0,1,3.38,2.08l3,2.06c.56.33,1.11.73,1.67,1.08,1.9,1.39,4.05,2.94,6,4.22.13.25.14.42-.18.39l.77,0,1,.65c1.85,1.3,3.06,1.74,4.17,2.44s2.08,1.21,2.8,1.68c1.45.94,1.94,1.49.83,1.42,3.81,1.12.94-.78.94-.78l3.24,1.17c-.46-.21-1-.42-1.42-.63a21.8,21.8,0,0,1,4.94,1.27c-2.38-1.14-5.2-2.4-7.57-3.65,3.6,1.47,7.4,2.82,11.45,4a42.62,42.62,0,0,0,8.29,2.61c1.74.62,3.37,1.19,4.54,1.75s1.76.94.62,1c12.58,2.73,4.7.36.07-1.55,4.55,1.19,9.19,2.25,14,3l1.93.37c-.81,0-1.46-.09-1.93-.1l-4.89-1.17c-.22,1.54,6.11,2.92,12.47,3.95a2.29,2.29,0,0,1,.57.21c1.5.35,1.51.58.59.77l2.05.12.7,0,.4,0-.71,0c2.27.13,3.59.16,4.24.12.87,0,.89-.12.22-.3l1,.12h.83l.95.1,2.63.35c1,.14,2,.33,2.8.52a13.68,13.68,0,0,1,2.62.81l-1.9-.07a60.59,60.59,0,0,0,7.88,1.14c2.66-.77.35-1.13-4.07-1.46,4.75,0,10.06-.32,14.87-.61,4.81.17,3.89.06,4-.2a26.18,26.18,0,0,1,6.33.26l-2,.34c2.81,0,5.67,0,8.47-.12,4.2-1.92-3.87-.88-12.76-.55.28-.26,1.49-.55,6.92-1.25-3.78-.18-7.94,1-12.38,1.39a82.85,82.85,0,0,1-9.52-.29c4.29-.28,10.27-.79,13.67-1.39,3.37.15,6.77.2,10.18.15,3-.64,8.69-1.83,13.32-2.89s8.29-2.25,7.06-2.47c1.3-.54-.2-.32-2.45,0h0l5.44-1.23c-4.15.73-8.44,1.42-12.76,2-.17-.12.25-.37,1.68-.87l-4,1.19-5.31.66c-.32-.23.09-.54,1-.88,4.27-.75,8.43-1.57,12.44-2.5,1-.11,2-.2,2.88-.24,3.33-1,3.54-1.22,2.45-1.11,1.81-.47,3.72-.87,5.46-1.39,6.39-1.88,12.57-3.9,18.5-6h0a170.48,170.48,0,0,0,17.92-5.54c2.23-.31-.5.75-3.91,1.95-3.57,1.26-8,2.47-8,2.79l-4.82,1.54,3.85-.8,3.27-.46c2.22-.31,4.19-.68,6.08-1,3.81-.65,7.31-1.5,11.77-2.63-1.58-.71,8.33-3.28,13.58-6-4.57.77-12.55,3-20.06,5.18a6.07,6.07,0,0,0-2,.14l7.81-2.47c-2.28.54-4.56,1-6.84,1.54,6.48-2.34,14.45-5.61,23.53-9.71A370.19,370.19,0,0,0,329.67,361c-2.23,1.77-1.38,1.9,5.89-2,2.31-1.24,4.64-2.4,6.74-3.65a38.63,38.63,0,0,1-4.72,3.12c3-1.51,5.84-3.3,8.73-5-.58.25-.81.25-.89.15,3.8-2.07,7.45-3.9,11-5.69s6.86-3.77,10.23-5.73,6.8-4.05,10.27-6.44,6.81-5.34,10.42-8.61c5.79-4.68,11.63-10.42,17.5-16.2,2.78-2.19,5.66-4.44,8.47-7s5.5-5.59,8.36-8.85c8-8.12,16.15-18.41,23.77-28.12s14.16-19.83,19.76-27.26l2.67-3.54-.12.4.75-1.24,17-22.6L483,214.28l0,0-.92.59-1.06.67a207.54,207.54,0,0,0,12.67-23.69,2.87,2.87,0,0,0-.43-1.28,107.83,107.83,0,0,0,6.47-20.29l2.47-2.68c4.73-14.8,6.22-25.11,6.61-37.53C507.86,128.38,506.74,128.29,505.54,129.25ZM32.89,309.33a7.24,7.24,0,0,1-2-2.22l-.25-.42.94.15a7.07,7.07,0,0,0,1.89,2Zm5.83-11.11a.2.2,0,0,1,.07-.06v0Zm11.05,46.3.07-.08-.35.27h0l.29-.37-.5.39a8.8,8.8,0,0,1,1.8-2h0c.13.29.2.43.34.72ZM248.57,22.63c.34.88.5,1.32.84,2.21l-.26.08c-.27-.57-.41-.85-.69-1.42h0l.07,0,.15-.06.1,0-.26.08-.1,0c-.12-.26-.19-.39-.31-.64h0l.07,0,.16-.07.14-.05-.17.06-.23.08c-.17-.33-.25-.5-.41-.84l.06,0,.13-.06.27-.11.07,0,.33.9,0,0Zm-1.41-2,.16-.07.34-.14.06,0,0,.09-.08,0-.37.12-.22.08,0,0h0l.09,0,.19-.09.35-.13c.19.51.28.76.48,1.27l-.06,0-.33.11-.16.05c-.23-.47-.35-.71-.57-1.18h0c.22.48.33.71.56,1.19-.23-.49-.35-.74-.59-1.23h0l0-.05ZM206.21,117c32-21,73.63-46.11,111.38-48.71.36,0,.72-.07,1.07-.09a149,149,0,0,1,32.86.83l.07,0q3.9.59,7.87,1.48l.14.12c11.34,2.66,18.72,6.21,22.95,8.76l-86,54.87h0c-44.08,30.56-89.81,58.93-135,87.92l-37.26,23.1-13.2,8.19-.13.09C113,245.5,132.65,174.91,206.21,117ZM326.43,267.71l-2.5,2a1.25,1.25,0,0,0-.17.12c-1.52,1.2-3.1,2.38-4.67,3.56-55.57,41.89-93.36,58.19-118.26,62.38a61.87,61.87,0,0,1-44.08-9.18l-.23-.31a50.86,50.86,0,0,1-9.25-7.5,59.91,59.91,0,0,1-4.16-4.79c.31,0,.6-.06.92-.12a10.62,10.62,0,0,0,3-1.2,40.6,40.6,0,0,0,4-1.92,90.77,90.77,0,0,0,8.52-5.43c5.78-4.08,11.57-8.72,16.1-12,12.9-13.87,35.72-24.66,49.85-34.45,7.08-4.28,14.5-16.72,21.79-15.6l13.38-7.86.26.93c12.63-8.17,25.15-19.2,36.47-27.5,5-3.53,5.21-6.5,9-5.91,11.11-5.29,21.21-15.93,31.11-22.47a1.34,1.34,0,0,1-.18-.76c3-2,6.1-3.92,9.13-5.9l4.89-3s0,0,0,0l-1.81,1.53h.32c3.72-2,7.67-3.58,11.45-5.44l.08-.08.17,0,.52-.25c.2-.93,1.47-1.43,3.1-2.11-.11-.19-.36-.3.13-.7,2.65-1,1.21-.68,2.75-2.05a4,4,0,0,1-1.57.7l3.27-2.1c-.44-.06-.82-.17-.95-.4l31.4-19.57.62-.36c9.21-5.61,13.56-7.54,14.68-8C419.57,189.33,368.38,235.22,326.43,267.71Z" fill="#fff"/></svg>